# xmcd
#
# Track frame offsets:
#	150
#	12665
#	23790
#	34345
#	47175
#	60285
#	73817
#	87735
#	100212
#	111777
#
# Disc length: 1664 seconds
#
# Revision: 4
# Processed by: cddbd v1.5.2PL0 Copyright (c) Steve Scherf et al.
# Submitted via: EZCDAudioConverter 6.0.5.1
#
DISCID=89067e0a
DTITLE=Various Artist - Classic Country - Country Gold
DYEAR=1997
DGENRE=Country
TTITLE0=Kenny Rogers - Reuben James
TTITLE1=Dolly Parton - Honky Tonk Angels
TTITLE2=Waylon Jennings - White Lightning
TTITLE3=Faron Young - Four In The Morning
TTITLE4=Lynn Anderson - Rose Garden
TTITLE5=Alabama - Patches
TTITLE6=Barbara Mandrell - Try To Remember
TTITLE7=Johnny Paycheck - Take This Job And Shove It
TTITLE8=Patsy Cline - The Heart You Break May Be Your Own
TTITLE9=Kenny Rogers - Ruby Don't Take Your Love To Town
EXTD=
EXTT0=
EXTT1=
EXTT2=
EXTT3=
EXTT4=
EXTT5=
EXTT6=
EXTT7=
EXTT8=
EXTT9=
PLAYORDER=
